<?xml version="1.0" encoding="UTF-8"?>
<!-- Generator: Adobe Illustrator 16.0.0, SVG Export Plug-In . SVG Version: 6.00 Build 0)  -->
<!DOCTYPE svg PUBLIC "-//W3C//DTD SVG 1.1//EN" "http://www.w3.org/Graphics/SVG/1.1/DTD/svg11.dtd">
<svg version="1.1" id="Layer_1" xmlns="http://www.w3.org/2000/svg" xmlns:xlink="http://www.w3.org/1999/xlink" x="0px" y="0px" width="961.451px" height="958.453px" viewBox="0 0 961.451 958.453" enable-background="new 0 0 961.451 958.453" xml:space="preserve">
<g id="Layer_1_1_">
	<path id="edge" fill="#FFFFFF" stroke="#000000" stroke-width="80" stroke-miterlimit="10" d="M477.227,49.098   c237.601,0,430.216,192.615,430.216,430.218c0,237.6-192.615,430.213-430.216,430.213c-237.605,0-430.22-192.613-430.22-430.213   C47.009,241.712,239.622,49.098,477.227,49.098z"/>
</g>
<g>
	<path id="discin" fill="#81FFFF" d="M763.358,448.899c7.854,49.673-111.329,109.787-266.194,134.273   c-154.866,24.485-286.775,4.07-294.618-45.594c-1.159-7.338,1.066-40.357,2.267-44.748   c12.399-45.332,121.453-95.904,259.474-117.727c135.423-21.412,252.857-7.899,281.572,29.74   C749.243,409.279,762.2,441.57,763.358,448.899z"/>
</g>
<path id="glow2" fill="none" stroke="#000000" stroke-width="30" stroke-linecap="round" stroke-miterlimit="10" d="  M716.174,444.071c-10.186,12.213-28.389,24.619-52.644,36.288"/>
<path id="glow1" fill="none" stroke="#000000" stroke-width="30" stroke-linecap="round" stroke-miterlimit="10" d="  M549.418,518.546c-18.689,4.349-38.339,8.195-58.681,11.411c-72.056,11.393-138.299,12.59-185.53,5.278  c-19.717-3.054-36.12-7.589-48.25-13.484"/>
<g>
	<path id="disc" fill="#000000" d="M587.372,365.011c78.881,0,139.037,14.426,158.487,39.921c3.384,4.435,16.341,36.726,17.499,44.055   c7.854,49.673-111.329,109.788-266.194,134.274c-44.444,7.027-87.012,10.356-125.285,10.356   c-95.089,0-163.741-20.539-169.333-55.95c-1.159-7.338,1.066-40.357,2.267-44.748c12.399-45.333,121.453-95.904,259.474-117.727   C507.979,368.284,549.801,365.011,587.372,365.011 M587.373,335.011L587.373,335.011L587.373,335.011L587.373,335.011   c-40.512,0-83.5,3.549-127.771,10.549c-68.949,10.902-134.516,29.507-184.623,52.39c-57.092,26.073-90.436,55.362-99.104,87.054   c-0.501,1.831-1.833,6.699-3.032,27.454c-1.246,21.565-0.291,27.612,0.069,29.889c1.774,11.234,7.801,27.729,26.438,42.508   c11.435,9.067,26.615,16.681,45.12,22.628c32.842,10.556,76.899,16.135,127.407,16.135c41.231,0,84.96-3.608,129.97-10.725   c77.891-12.315,149.964-33.815,202.943-60.538c27.483-13.863,48.916-28.698,63.702-44.095   c24.562-25.573,26.878-48.896,24.496-63.958c-0.341-2.158-1.38-8.731-9.682-29.543c-8.529-21.379-11.953-25.867-13.599-28.023   c-13.836-18.137-38.59-31.742-73.572-40.438C666.432,338.914,628.822,335.011,587.373,335.011L587.373,335.011L587.373,335.011z"/>
</g>
<g id="shadow">
	<path opacity="0.5" d="M763.358,448.987c7.854,49.673-111.329,109.788-266.194,134.274   c-154.866,24.485-286.775,4.07-294.618-45.594c-0.831-5.265,0.082-23.723,1.108-35.365c0.039,1.208,0.148,2.416,0.337,3.611   c7.629,48.25,136.532,67.966,287.911,44.03c151.389-23.946,267.927-82.47,260.297-130.72c-0.124-0.781-0.276-1.557-0.467-2.316   C756.643,428.321,762.59,444.127,763.358,448.987z"/>
</g>
</svg>